<?xml version="1.0" encoding="UTF-8"?>
<svg width="18px" height="18px" viewBox="0 0 18 18" version="1.1" xmlns="http://www.w3.org/2000/svg" xmlns:xlink="http://www.w3.org/1999/xlink">
    <!-- Generator: Sketch 53 (72520) - https://sketchapp.com -->
    <title>Icon / Add / Rounded</title>
    <desc>Created with Sketch.</desc>
    <defs>
        <path d="M22.5,16.25 L16.25,16.25 L16.25,22.5 C16.25,23.1875 15.6875,23.75 15,23.75 L15,23.75 C14.3125,23.75 13.75,23.1875 13.75,22.5 L13.75,16.25 L7.5,16.25 C6.8125,16.25 6.25,15.6875 6.25,15 L6.25,15 C6.25,14.3125 6.8125,13.75 7.5,13.75 L13.75,13.75 L13.75,7.5 C13.75,6.8125 14.3125,6.25 15,6.25 L15,6.25 C15.6875,6.25 16.25,6.8125 16.25,7.5 L16.25,13.75 L22.5,13.75 C23.1875,13.75 23.75,14.3125 23.75,15 L23.75,15 C23.75,15.6875 23.1875,16.25 22.5,16.25 Z" id="path-1"></path>
    </defs>
    <g id="High-Fidelity" stroke="none" stroke-width="1" fill="none" fill-rule="evenodd">
        <g id="Feed" transform="translate(-323.000000, -200.000000)">
            <g id="Track-5" transform="translate(2.000000, 172.000000)">
                <g id="Icon-/-Add-/-Rounded" transform="translate(315.000000, 22.000000)">
                    <mask id="mask-2" fill="white">
                        <use xlink:href="#path-1"></use>
                    </mask>
                    <g id="Mask" fill-rule="nonzero"></g>
                    <g id="✱-/-Color-/-Icons-/-Black-/-Active" mask="url(#mask-2)" fill="#000000" fill-opacity="0.87" fill-rule="evenodd">
                        <rect id="Rectangle-13" x="0" y="0" width="30" height="30"></rect>
                    </g>
                </g>
            </g>
        </g>
    </g>
</svg>